<svg xmlns="http://www.w3.org/2000/svg" viewBox="0 0 16 16" shape-rendering="crispEdges">
  <title>Reitzin Family Hub</title>
  <rect width="16" height="16" rx="3" fill="#100a1c" />
  <g fill="#d9a441">
    <rect x="5" y="1" width="6" height="1" />
    <rect x="3" y="2" width="8" height="1" />
    <rect x="2" y="3" width="8" height="1" />
    <rect x="2" y="4" width="7" height="1" />
    <rect x="1" y="5" width="8" height="1" />
    <rect x="1" y="6" width="7" height="1" />
    <rect x="1" y="7" width="7" height="1" />
    <rect x="1" y="8" width="7" height="1" />
    <rect x="1" y="9" width="7" height="1" />
    <rect x="1" y="10" width="8" height="1" />
    <rect x="2" y="11" width="7" height="1" />
    <rect x="2" y="12" width="8" height="1" />
    <rect x="3" y="13" width="8" height="1" />
    <rect x="5" y="14" width="6" height="1" />
  </g>
  <g fill="#f2c96b">
    <rect x="12" y="3" width="1" height="1" />
    <rect x="13" y="7" width="1" height="1" />
    <rect x="11" y="11" width="1" height="1" />
  </g>
</svg>
